<svg width="30" height="30" viewBox="0 0 30 30" fill="none" xmlns="http://www.w3.org/2000/svg">
<path id="Vector" d="M8.33333 23.3333C8.80556 23.3333 9.20167 23.1733 9.52167 22.8533C9.84167 22.5333 10.0011 22.1378 10 21.6667C10 21.1944 9.84 20.7983 9.52 20.4783C9.2 20.1583 8.80445 19.9989 8.33333 20C7.86111 20 7.465 20.16 7.145 20.48C6.825 20.8 6.66556 21.1956 6.66667 21.6667C6.66667 22.1389 6.82667 22.535 7.14667 22.855C7.46667 23.175 7.86222 23.3344 8.33333 23.3333ZM8.33333 16.6667C8.80556 16.6667 9.20167 16.5067 9.52167 16.1867C9.84167 15.8667 10.0011 15.4711 10 15C10 14.5278 9.84 14.1317 9.52 13.8117C9.2 13.4917 8.80445 13.3322 8.33333 13.3333C7.86111 13.3333 7.465 13.4933 7.145 13.8133C6.825 14.1333 6.66556 14.5289 6.66667 15C6.66667 15.4722 6.82667 15.8683 7.14667 16.1883C7.46667 16.5083 7.86222 16.6678 8.33333 16.6667ZM8.33333 10C8.80556 10 9.20167 9.84 9.52167 9.52C9.84167 9.2 10.0011 8.80445 10 8.33333C10 7.86111 9.84 7.465 9.52 7.145C9.2 6.825 8.80445 6.66556 8.33333 6.66667C7.86111 6.66667 7.465 6.82667 7.145 7.14667C6.825 7.46667 6.66556 7.86222 6.66667 8.33333C6.66667 8.80556 6.82667 9.20167 7.14667 9.52167C7.46667 9.84167 7.86222 10.0011 8.33333 10ZM13.3333 23.3333H23.3333V20H13.3333V23.3333ZM13.3333 16.6667H23.3333V13.3333L13.3333 13.3333L13.3333 16.6667ZM13.3333 10L23.3333 10V6.66667L13.3333 6.66667V10ZM3.33334 30C2.41667 30 1.63167 29.6733 0.978336 29.02C0.325003 28.3667 -0.00110828 27.5822 2.82966e-06 26.6667L2.82966e-06 3.33334C2.82966e-06 2.41667 0.326669 1.63167 0.980003 0.978336C1.63334 0.325003 2.41778 -0.00110828 3.33334 2.82966e-06L26.6667 2.82966e-06C27.5833 2.82966e-06 28.3683 0.326669 29.0217 0.980003C29.675 1.63334 30.0011 2.41778 30 3.33334L30 26.6667C30 27.5833 29.6733 28.3683 29.02 29.0217C28.3667 29.675 27.5822 30.0011 26.6667 30L3.33334 30Z" fill="#FF396A"/>
</svg>
