<svg width="29" height="29" viewBox="0 0 29 29" fill="none" xmlns="http://www.w3.org/2000/svg">
<path id="Vector" d="M20.6987 21.9312L20.0825 21.315C19.865 21.0975 19.6054 20.9888 19.3039 20.9888C19.0023 20.9888 18.7422 21.0975 18.5238 21.315C18.3062 21.5325 18.1975 21.7863 18.1975 22.0763C18.1975 22.3663 18.3062 22.62 18.5238 22.8375L19.9375 24.2512C20.155 24.4688 20.4088 24.5775 20.6987 24.5775C20.9888 24.5775 21.2425 24.4688 21.46 24.2512L24.9763 20.8075C25.1938 20.59 25.3025 20.33 25.3025 20.0274C25.3025 19.7248 25.1938 19.4653 24.9763 19.2487C24.7588 19.0313 24.4987 18.9225 24.1962 18.9225C23.8936 18.9225 23.634 19.0313 23.4175 19.2487L20.6987 21.9312ZM20.3 8.7C20.7108 8.7 21.0555 8.5608 21.3338 8.2824C21.6122 8.004 21.751 7.65987 21.75 7.25C21.75 6.83917 21.6108 6.49455 21.3324 6.21615C21.054 5.93775 20.7099 5.79904 20.3 5.8L5.8 5.8C5.38917 5.8 5.04455 5.9392 4.76615 6.2176C4.48775 6.496 4.34903 6.84014 4.35 7.25C4.35 7.66084 4.4892 8.00545 4.7676 8.28385C5.046 8.56225 5.39013 8.70097 5.8 8.7L20.3 8.7ZM21.75 29C19.7442 29 18.0346 28.2929 16.6214 26.8787C15.2081 25.4644 14.501 23.7549 14.5 21.75C14.5 19.7442 15.2071 18.0341 16.6214 16.6199C18.0356 15.2057 19.7451 14.499 21.75 14.5C23.7558 14.5 25.4659 15.2071 26.8801 16.6214C28.2943 18.0356 29.001 19.7451 29 21.75C29 23.7558 28.2929 25.4659 26.8787 26.8801C25.4644 28.2943 23.7549 29.001 21.75 29ZM2.9 2.4618e-06L23.2 2.4618e-06C23.9975 2.4618e-06 24.6805 0.284202 25.2489 0.852602C25.8173 1.421 26.101 2.10347 26.1 2.9L26.1 12.5788C25.4233 12.2404 24.7162 11.9925 23.9787 11.8349C23.2411 11.6773 22.4982 11.599 21.75 11.6L5.8 11.6C5.38917 11.6 5.04455 11.7392 4.76615 12.0176C4.48775 12.296 4.34903 12.6401 4.35 13.05C4.35 13.4608 4.4892 13.8055 4.7676 14.0839C5.046 14.3623 5.39013 14.501 5.8 14.5H14.645C14.2342 14.9108 13.8538 15.3579 13.5038 15.8413C13.1539 16.3246 12.8456 16.8442 12.5788 17.4L5.8 17.4C5.38917 17.4 5.04455 17.5392 4.76615 17.8176C4.48775 18.096 4.34903 18.4401 4.35 18.85C4.35 19.2608 4.4892 19.6054 4.7676 19.8839C5.046 20.1622 5.39013 20.301 5.8 20.3L11.7087 20.3C11.6604 20.5417 11.63 20.7775 11.6174 21.0076C11.6048 21.2377 11.599 21.4851 11.6 21.75C11.6 22.765 11.7392 23.7379 12.0176 24.6688C12.296 25.5998 12.7126 26.4876 13.2675 27.3325C13.1467 27.3567 13.0196 27.3383 12.8862 27.2774C12.7528 27.2165 12.6382 27.1382 12.5425 27.0425L11.3825 25.8825C11.2375 25.7375 11.0683 25.665 10.875 25.665C10.6817 25.665 10.5125 25.7375 10.3675 25.8825L9.2075 27.0425C9.0625 27.1875 8.89333 27.26 8.7 27.26C8.50667 27.26 8.3375 27.1875 8.1925 27.0425L7.0325 25.8825C6.8875 25.7375 6.71833 25.665 6.525 25.665C6.33167 25.665 6.1625 25.7375 6.0175 25.8825L4.8575 27.0425C4.7125 27.1875 4.54333 27.26 4.35 27.26C4.15667 27.26 3.9875 27.1875 3.8425 27.0425L2.6825 25.8825C2.5375 25.7375 2.36833 25.665 2.175 25.665C1.98167 25.665 1.8125 25.7375 1.6675 25.8825L0.5075 27.0425L0 27.3687L0 2.9C0 2.1025 0.2842 1.41955 0.8526 0.851152C1.421 0.282752 2.10347 -0.000964205 2.9 2.4618e-06Z" fill="#FF396A"/>
</svg>
