<svg width="28" height="30" viewBox="0 0 28 30" fill="none" xmlns="http://www.w3.org/2000/svg">
<path id="Vector" fill-rule="evenodd" clip-rule="evenodd" d="M12.1273 0.103125C15.016 -0.535138 17.1113 1.90187 17.1113 4.31139V25.6886C17.1113 28.0981 15.016 30.5351 12.1273 29.8969C5.18628 28.3638 0 22.2774 0 15C0 7.72258 5.18628 1.63618 12.1273 0.103125ZM20.6782 9.33961C20.97 9.05336 21.3656 8.89255 21.778 8.89255C22.1905 8.89255 22.5861 9.05336 22.8778 9.33961L27.5446 13.9205C27.8362 14.2068 28 14.5951 28 15C28 15.4049 27.8362 15.7932 27.5446 16.0795L22.8778 20.6604C22.5844 20.9385 22.1915 21.0924 21.7836 21.089C21.3758 21.0855 20.9856 20.9249 20.6972 20.6418C20.4088 20.3587 20.2452 19.9757 20.2416 19.5753C20.2381 19.175 20.3949 18.7893 20.6782 18.5013L22.6896 16.5269H9.33344C8.92088 16.5269 8.52521 16.3661 8.23349 16.0797C7.94176 15.7934 7.77787 15.405 7.77787 15C7.77787 14.595 7.94176 14.2066 8.23349 13.9203C8.52521 13.6339 8.92088 13.4731 9.33344 13.4731H22.6896L20.6782 11.4987C20.3866 11.2124 20.2228 10.8241 20.2228 10.4192C20.2228 10.0143 20.3866 9.62596 20.6782 9.33961Z" fill="#FF396A"/>
</svg>
