<svg width="39" height="39" viewBox="0 0 39 39" fill="none" xmlns="http://www.w3.org/2000/svg">
<path id="Vector" d="M10.8333 30.3333C11.4472 30.3333 11.9622 30.1253 12.3782 29.7093C12.7942 29.2933 13.0014 28.7791 13 28.1667C13 27.5528 12.792 27.0378 12.376 26.6218C11.96 26.2058 11.4458 25.9986 10.8333 26C10.2194 26 9.7045 26.208 9.2885 26.624C8.8725 27.04 8.66523 27.5542 8.66667 28.1667C8.66667 28.7806 8.87467 29.2955 9.29067 29.7115C9.70667 30.1275 10.2209 30.3348 10.8333 30.3333ZM10.8333 21.6667C11.4472 21.6667 11.9622 21.4587 12.3782 21.0427C12.7942 20.6267 13.0014 20.1124 13 19.5C13 18.8861 12.792 18.3712 12.376 17.9552C11.96 17.5392 11.4458 17.3319 10.8333 17.3333C10.2194 17.3333 9.7045 17.5413 9.2885 17.9573C8.8725 18.3733 8.66523 18.8876 8.66667 19.5C8.66667 20.1139 8.87467 20.6288 9.29067 21.0448C9.70667 21.4608 10.2209 21.6681 10.8333 21.6667ZM10.8333 13C11.4472 13 11.9622 12.792 12.3782 12.376C12.7942 11.96 13.0014 11.4458 13 10.8333C13 10.2194 12.792 9.7045 12.376 9.2885C11.96 8.8725 11.4458 8.66523 10.8333 8.66667C10.2194 8.66667 9.7045 8.87467 9.2885 9.29067C8.8725 9.70667 8.66523 10.2209 8.66667 10.8333C8.66667 11.4472 8.87467 11.9622 9.29067 12.3782C9.70667 12.7942 10.2209 13.0014 10.8333 13ZM17.3333 30.3333H30.3333V26H17.3333V30.3333ZM17.3333 21.6667H30.3333V17.3333H17.3333V21.6667ZM17.3333 13H30.3333V8.66667H17.3333V13ZM4.33334 39C3.14167 39 2.12117 38.5753 1.27184 37.726C0.422503 36.8767 -0.00144077 35.8569 3.67855e-06 34.6667V4.33334C3.67855e-06 3.14167 0.42467 2.12117 1.274 1.27184C2.12334 0.422503 3.14311 -0.00144077 4.33334 3.67855e-06H34.6667C35.8583 3.67855e-06 36.8788 0.42467 37.7282 1.274C38.5775 2.12334 39.0014 3.14311 39 4.33334V34.6667C39 35.8583 38.5753 36.8788 37.726 37.7282C36.8767 38.5775 35.8569 39.0014 34.6667 39H4.33334Z" fill="#00823D"/>
</svg>
