<svg width="39" height="39" viewBox="0 0 39 39" fill="none" xmlns="http://www.w3.org/2000/svg">
<path id="Vector" d="M11.3333 8.66667C11.3333 6.50073 12.1937 4.42351 13.7253 2.89196C15.2568 1.36041 17.3341 0.5 19.5 0.5C21.6659 0.5 23.7432 1.36041 25.2747 2.89196C26.8063 4.42351 27.6667 6.50073 27.6667 8.66667C27.6667 10.8326 26.8063 12.9098 25.2747 14.4414C23.7432 15.9729 21.6659 16.8333 19.5 16.8333C17.3341 16.8333 15.2568 15.9729 13.7253 14.4414C12.1937 12.9098 11.3333 10.8326 11.3333 8.66667ZM3.52656 25.1932C5.46444 23.2554 8.09276 22.1667 10.8333 22.1667H28.1667C30.9072 22.1667 33.5356 23.2554 35.4734 25.1932C37.4113 27.1311 38.5 29.7594 38.5 32.5C38.5 34.0913 37.8679 35.6174 36.7426 36.7426C35.6174 37.8679 34.0913 38.5 32.5 38.5H6.5C4.9087 38.5 3.38258 37.8679 2.25736 36.7426C1.13214 35.6174 0.5 34.0913 0.5 32.5C0.5 29.7594 1.58869 27.1311 3.52656 25.1932Z" fill="black" stroke="black"/>
</svg>
