<svg width="30" height="36" viewBox="0 0 30 36" fill="none" xmlns="http://www.w3.org/2000/svg">
<g id="Group 2608854">
<path id="Vector" d="M29.1527 18.6883C28.7402 18.2476 28.1807 18 27.5974 18C27.014 18 26.4545 18.2476 26.042 18.6883L15.152 30.3254L4.26207 18.6883C3.84714 18.2601 3.29142 18.0231 2.71459 18.0285C2.13776 18.0338 1.58597 18.2811 1.17808 18.717C0.770182 19.1528 0.538815 19.7425 0.533802 20.3589C0.52879 20.9753 0.750536 21.5691 1.15128 22.0125L13.5966 35.3117C14.0092 35.7524 14.5687 36 15.152 36C15.7354 36 16.2948 35.7524 16.7074 35.3117L29.1527 22.0125C29.5652 21.5717 29.7969 20.9738 29.7969 20.3504C29.7969 19.727 29.5652 19.1292 29.1527 18.6883Z" fill="black"/>
<path id="Vector_2" d="M29.1527 0.68832C28.7402 0.247591 28.1807 1.85117e-06 27.5974 1.83089e-06C27.014 1.81062e-06 26.4545 0.247591 26.042 0.68832L15.152 12.3254L4.26207 0.688319C3.84714 0.260081 3.29142 0.0231219 2.71459 0.0284777C2.13776 0.0338335 1.58597 0.281077 1.17808 0.716958C0.770182 1.15284 0.538815 1.74248 0.533802 2.35888C0.52879 2.97529 0.750536 3.56913 1.15128 4.01252L13.5966 17.3117C14.0092 17.7524 14.5687 18 15.152 18C15.7354 18 16.2948 17.7524 16.7074 17.3117L29.1527 4.01252C29.5652 3.57166 29.7969 2.9738 29.7969 2.35042C29.7969 1.72704 29.5652 1.12918 29.1527 0.68832Z" fill="black"/>
</g>
</svg>
