<svg width="37" height="27" viewBox="0 0 37 27" fill="none" xmlns="http://www.w3.org/2000/svg">
<path d="M18.4091 18.409C21.1203 18.409 23.3182 16.2111 23.3182 13.4999C23.3182 10.7887 21.1203 8.59082 18.4091 8.59082C15.6979 8.59082 13.5 10.7887 13.5 13.4999C13.5 16.2111 15.6979 18.409 18.4091 18.409Z" fill="black"/>
<path d="M36.744 13.0827C35.3006 9.34893 32.7946 6.11994 29.536 3.79483C26.2774 1.46973 22.4088 0.15043 18.4086 0C14.4083 0.15043 10.5398 1.46973 7.28114 3.79483C4.0225 6.11994 1.51658 9.34893 0.0731142 13.0827C-0.0243714 13.3524 -0.0243714 13.6476 0.0731142 13.9173C1.51658 17.6511 4.0225 20.8801 7.28114 23.2052C10.5398 25.5303 14.4083 26.8496 18.4086 27C22.4088 26.8496 26.2774 25.5303 29.536 23.2052C32.7946 20.8801 35.3006 17.6511 36.744 13.9173C36.8415 13.6476 36.8415 13.3524 36.744 13.0827ZM18.4086 21.4773C16.8308 21.4773 15.2885 21.0094 13.9766 20.1329C12.6648 19.2563 11.6423 18.0104 11.0385 16.5528C10.4347 15.0951 10.2768 13.4912 10.5846 11.9437C10.8924 10.3963 11.6521 8.97486 12.7678 7.85922C13.8834 6.74357 15.3048 5.98381 16.8523 5.67601C18.3997 5.3682 20.0037 5.52618 21.4613 6.12996C22.919 6.73374 24.1649 7.75621 25.0414 9.06807C25.918 10.3799 26.3858 11.9222 26.3858 13.5C26.3826 15.6147 25.5411 17.6419 24.0458 19.1372C22.5504 20.6325 20.5233 21.474 18.4086 21.4773Z" fill="black"/>
</svg>
