<svg width="27" height="27" viewBox="0 0 27 27" fill="none" xmlns="http://www.w3.org/2000/svg">
<g id="mingcute:close-fill" clip-path="url(#clip0_966_22771)">
<g id="Group">
<path id="Vector" fill-rule="evenodd" clip-rule="evenodd" d="M13.5005 15.8862L19.4664 21.8532C19.783 22.1698 20.2123 22.3476 20.66 22.3476C21.1077 22.3476 21.5371 22.1698 21.8537 21.8532C22.1702 21.5366 22.3481 21.1073 22.3481 20.6596C22.3481 20.2119 22.1702 19.7825 21.8537 19.4659L15.8855 13.5001L21.8525 7.53419C22.0092 7.37744 22.1335 7.19137 22.2182 6.98659C22.303 6.78182 22.3466 6.56235 22.3465 6.34073C22.3465 6.1191 22.3028 5.89966 22.2179 5.69492C22.1331 5.49019 22.0087 5.30418 21.852 5.1475C21.6952 4.99083 21.5091 4.86656 21.3044 4.78179C21.0996 4.69703 20.8801 4.65343 20.6585 4.65348C20.4369 4.65353 20.2174 4.69724 20.0127 4.7821C19.808 4.86696 19.622 4.99131 19.4653 5.14806L13.5005 11.1139L7.53466 5.14806C7.37907 4.98682 7.19292 4.85817 6.98708 4.76964C6.78124 4.6811 6.55983 4.63445 6.33577 4.63239C6.1117 4.63034 5.88947 4.67294 5.68205 4.75769C5.47462 4.84244 5.28615 4.96765 5.12763 5.12602C4.96911 5.28439 4.84372 5.47274 4.75878 5.68009C4.67383 5.88743 4.63103 6.10962 4.63287 6.33369C4.63471 6.55775 4.68116 6.77921 4.7695 6.98513C4.85784 7.19105 4.98631 7.37732 5.14741 7.53306L11.1155 13.5001L5.14853 19.4659C4.83196 19.7825 4.65412 20.2119 4.65412 20.6596C4.65412 21.1073 4.83196 21.5366 5.14853 21.8532C5.4651 22.1698 5.89446 22.3476 6.34216 22.3476C6.78985 22.3476 7.21921 22.1698 7.53578 21.8532L13.5005 15.8851V15.8862Z" fill="black"/>
</g>
</g>
<defs>
<clipPath id="clip0_966_22771">
<rect width="27" height="27" fill="white"/>
</clipPath>
</defs>
</svg>
