<svg width="43" height="43" viewBox="0 0 43 43" fill="none" xmlns="http://www.w3.org/2000/svg">
<g id="Group 26086312">
<path id="Vector" d="M41.4855 21.7427C41.4855 10.8431 32.6424 2 21.7427 2C10.8431 2 2 10.8431 2 21.7427C2 32.6424 10.8431 41.4855 21.7427 41.4855C32.6424 41.4855 41.4855 32.6424 41.4855 21.7427Z" stroke="white" stroke-width="3" stroke-miterlimit="10"/>
<path id="Vector_2" d="M32.981 27.604C31.3019 25.6153 30.1163 24.7794 30.1163 19.2956C30.1163 14.2715 27.4654 12.4854 25.2834 11.6175C25.1329 11.5547 24.9972 11.4612 24.8849 11.3429C24.7727 11.2246 24.6863 11.0842 24.6315 10.9306C24.25 9.67102 23.1796 8.58105 21.7523 8.58105C20.3251 8.58105 19.2526 9.67102 18.8732 10.9317C18.8187 11.0853 18.7326 11.2257 18.6205 11.344C18.5084 11.4623 18.3727 11.5559 18.2223 11.6186C16.0383 12.4885 13.3894 14.2715 13.3894 19.2966C13.3894 24.7804 12.2028 25.6164 10.5237 27.605C9.82753 28.4276 10.4568 29.97 11.6743 29.97H31.8294C33.0396 29.969 33.6741 28.4266 32.981 27.604ZM18.0753 31.6142C18.0174 31.6139 17.9601 31.6258 17.9072 31.6491C17.8543 31.6724 17.8068 31.7067 17.768 31.7496C17.7292 31.7924 17.6999 31.843 17.6819 31.898C17.664 31.953 17.6579 32.0112 17.664 32.0687C17.8953 33.9937 19.6043 34.9047 21.7523 34.9047C23.8778 34.9047 25.5713 33.9638 25.8304 32.0749C25.8375 32.0169 25.832 31.9581 25.8145 31.9023C25.797 31.8466 25.7678 31.7952 25.7289 31.7516C25.69 31.708 25.6423 31.6732 25.5888 31.6495C25.5354 31.6259 25.4776 31.6138 25.4191 31.6142H18.0753Z" fill="white"/>
</g>
</svg>
