<svg width="42" height="40" viewBox="0 0 42 40" fill="none" xmlns="http://www.w3.org/2000/svg">
<path id="Vector" fill-rule="evenodd" clip-rule="evenodd" d="M21 4C18.0616 3.99948 15.1744 4.73297 12.6267 6.12725C10.079 7.52153 7.95979 9.52783 6.48065 11.9459C5.00151 14.364 4.21418 17.1092 4.19722 19.9077C4.18026 22.7061 4.93428 25.4598 6.38402 27.894C7.3639 26.6811 8.62352 25.6991 10.0655 25.0239C11.5075 24.3487 13.0932 23.9984 14.7 24H27.3C28.9068 23.9984 30.4925 24.3487 31.9345 25.0239C33.3765 25.6991 34.6361 26.6811 35.616 27.894C37.0657 25.4598 37.8197 22.7061 37.8028 19.9077C37.7858 17.1092 36.9985 14.364 35.5193 11.9459C34.0402 9.52783 31.921 7.52153 29.3733 6.12725C26.8256 4.73297 23.9384 3.99948 21 4ZM37.6803 32.152C40.488 28.6659 42.0067 24.3935 42 20C42 8.95399 32.5983 0 21 0C9.40171 0 2.36318e-05 8.95399 2.36318e-05 20C-0.00690938 24.3935 1.51182 28.666 4.31972 32.152L4.30922 32.188L5.05472 33.014C7.02427 35.207 9.46972 36.9672 12.2225 38.1732C14.9753 39.3793 17.9699 40.0025 21 40C25.2574 40.0074 29.4155 38.7758 32.9175 36.47C34.4104 35.4876 35.7642 34.326 36.9453 33.014L37.6908 32.188L37.6803 32.152ZM21 7.99999C19.3291 7.99999 17.7267 8.63213 16.5452 9.75735C15.3638 10.8826 14.7 12.4087 14.7 14C14.7 15.5913 15.3638 17.1174 16.5452 18.2426C17.7267 19.3678 19.3291 20 21 20C22.6709 20 24.2733 19.3678 25.4548 18.2426C26.6362 17.1174 27.3 15.5913 27.3 14C27.3 12.4087 26.6362 10.8826 25.4548 9.75735C24.2733 8.63213 22.6709 7.99999 21 7.99999Z" fill="white"/>
</svg>
