<svg width="30" height="28" viewBox="0 0 30 28" fill="none" xmlns="http://www.w3.org/2000/svg">
<path id="Vector" fill-rule="evenodd" clip-rule="evenodd" d="M13.1579 0.629831C13.6845 0.221626 14.3327 0 14.9999 0C15.667 0 16.3152 0.221626 16.8418 0.629831L29.4176 10.375C30.547 11.2524 29.923 13.0534 28.4951 13.0534H26.9996V25.0107C26.9996 25.8035 26.6835 26.5638 26.1209 27.1245C25.5583 27.6851 24.7953 28 23.9997 28H6.00003C5.2044 28 4.44135 27.6851 3.87876 27.1245C3.31616 26.5638 3.00009 25.8035 3.00009 25.0107V13.0534H1.50463C0.0751541 13.0534 -0.545833 11.2509 0.582144 10.3765L13.1579 0.629831Z" fill="black"/>
</svg>
