<svg width="21" height="28" viewBox="0 0 21 28" fill="none" xmlns="http://www.w3.org/2000/svg">
<g id="Group 26086190">
<path id="Vector" d="M10.5029 12.912C11.7799 12.912 13.0282 12.5332 14.09 11.8237C15.1517 11.1141 15.9792 10.1057 16.4677 8.92578C16.9563 7.7459 17.0839 6.44764 16.8345 5.19521C16.5851 3.94278 15.9699 2.79244 15.0667 1.8897C14.1635 0.98695 13.0128 0.372349 11.7602 0.123633C10.5077 -0.125083 9.20948 0.00325819 8.02987 0.492424C6.85025 0.981589 5.84221 1.8096 5.13323 2.87174C4.42425 3.93387 4.04619 5.1824 4.04688 6.45942C4.04961 8.1705 4.73078 9.81065 5.94101 11.0202C7.15125 12.2298 8.79177 12.9101 10.5029 12.912Z" fill="#FF396A"/>
<path id="Vector_2" d="M2.75455 28H18.2489C18.9794 28 19.6801 27.7098 20.1966 27.1932C20.7132 26.6767 21.0034 25.976 21.0034 25.2455V24.6154C20.9333 21.8767 19.7961 19.2738 17.8343 17.3616C15.8725 15.4493 13.2413 14.3792 10.5017 14.3792C7.76215 14.3792 5.13096 15.4493 3.16915 17.3616C1.20734 19.2738 0.0701359 21.8767 0 24.6154V25.2455C0 25.976 0.29021 26.6767 0.806789 27.1932C1.06257 27.449 1.36623 27.6519 1.70043 27.7903C2.03463 27.9288 2.39282 28 2.75455 28Z" fill="#FF396A"/>
</g>
</svg>
