<svg width="20" height="15" viewBox="0 0 20 15" fill="none" xmlns="http://www.w3.org/2000/svg">
<g id="Email">
<path id="Vector" d="M18.3307 2.94946V11.2828C18.3307 11.8353 18.1112 12.3652 17.7205 12.7559C17.3298 13.1466 16.7999 13.3661 16.2474 13.3661H3.7474C3.19486 13.3661 2.66496 13.1466 2.27426 12.7559C1.88356 12.3652 1.66406 11.8353 1.66406 11.2828V2.94946" stroke="white" stroke-width="1.4" stroke-linecap="round" stroke-linejoin="round"/>
<path id="Vector_2" d="M18.3307 2.94954C18.3307 2.39701 18.1112 1.86711 17.7205 1.47641C17.3298 1.0857 16.7999 0.866211 16.2474 0.866211H3.7474C3.19486 0.866211 2.66496 1.0857 2.27426 1.47641C1.88356 1.86711 1.66406 2.39701 1.66406 2.94954L8.89323 7.46343C9.22434 7.67038 9.60694 7.7801 9.9974 7.7801C10.3879 7.7801 10.7705 7.67038 11.1016 7.46343L18.3307 2.94954Z" stroke="white" stroke-width="1.4" stroke-linecap="round" stroke-linejoin="round"/>
</g>
</svg>
