<svg width="19" height="19" viewBox="0 0 19 19" fill="none" xmlns="http://www.w3.org/2000/svg">
<g id="Social Media Icon Square/Instagram">
<path id="Instagram" fill-rule="evenodd" clip-rule="evenodd" d="M0.851562 9.39502C0.851562 5.79988 0.851562 4.00231 1.70825 2.70757C2.09081 2.12941 2.58595 1.63427 3.16412 1.25171C4.45885 0.39502 6.25642 0.39502 9.85156 0.39502C13.4467 0.39502 15.2443 0.39502 16.539 1.25171C17.1172 1.63427 17.6123 2.12941 17.9949 2.70757C18.8516 4.00231 18.8516 5.79988 18.8516 9.39502C18.8516 12.9902 18.8516 14.7877 17.9949 16.0825C17.6123 16.6606 17.1172 17.1558 16.539 17.5383C15.2443 18.395 13.4467 18.395 9.85156 18.395C6.25642 18.395 4.45885 18.395 3.16412 17.5383C2.58595 17.1558 2.09081 16.6606 1.70825 16.0825C0.851562 14.7877 0.851562 12.9902 0.851562 9.39502ZM14.5141 9.39555C14.5141 11.9689 12.428 14.055 9.85469 14.055C7.28137 14.055 5.19528 11.9689 5.19528 9.39555C5.19528 6.82223 7.28137 4.73614 9.85469 4.73614C12.428 4.73614 14.5141 6.82223 14.5141 9.39555ZM9.85469 12.4786C11.5574 12.4786 12.9377 11.0982 12.9377 9.39555C12.9377 7.69286 11.5574 6.31255 9.85469 6.31255C8.152 6.31255 6.77169 7.69286 6.77169 9.39555C6.77169 11.0982 8.152 12.4786 9.85469 12.4786ZM14.6964 5.59687C15.301 5.59687 15.7912 5.1067 15.7912 4.50205C15.7912 3.8974 15.301 3.40723 14.6964 3.40723C14.0917 3.40723 13.6016 3.8974 13.6016 4.50205C13.6016 5.1067 14.0917 5.59687 14.6964 5.59687Z" fill="#51FFA3"/>
</g>
</svg>
