<svg width="19" height="19" viewBox="0 0 19 19" fill="none" xmlns="http://www.w3.org/2000/svg">
<g id="Social Media Icon Square/LinkedIn">
<g id="Group 73">
<path id="LinkedIn" d="M0.851562 3.31483C0.851562 2.73762 1.05427 2.26143 1.45967 1.88626C1.86507 1.51107 2.39211 1.32349 3.04075 1.32349C3.67782 1.32349 4.19326 1.50818 4.58708 1.8776C4.99248 2.25855 5.19519 2.75493 5.19519 3.36678C5.19519 3.92089 4.99829 4.38264 4.60446 4.75206C4.19906 5.13301 3.66623 5.32348 3.006 5.32348H2.98863C2.35156 5.32348 1.83612 5.13301 1.4423 4.75206C1.04847 4.3711 0.851562 3.89202 0.851562 3.31483ZM1.07743 18.4663V6.89924H4.93457V18.4663H1.07743ZM7.07164 18.4663H10.9288V12.0075C10.9288 11.6034 10.9751 11.2917 11.0678 11.0724C11.2299 10.6799 11.4761 10.348 11.8062 10.0767C12.1363 9.80544 12.5504 9.6698 13.0485 9.6698C14.3458 9.6698 14.9944 10.5414 14.9944 12.2845V18.4663H18.8516V11.8343C18.8516 10.1258 18.4462 8.82998 17.6353 7.94686C16.8245 7.06374 15.7531 6.62219 14.4211 6.62219C12.9269 6.62219 11.7628 7.26288 10.9288 8.54426V8.5789H10.9114L10.9288 8.54426V6.89924H7.07164C7.0948 7.26864 7.10639 8.41727 7.10639 10.3451C7.10639 12.273 7.0948 14.98 7.07164 18.4663Z" fill="#51FFA3"/>
</g>
</g>
</svg>
