<svg width="16" height="19" viewBox="0 0 16 19" fill="none" xmlns="http://www.w3.org/2000/svg">
<g id="Mark">
<path id="Vector" d="M14.8621 8.65601C14.8621 14.0348 9.35296 17.3486 8.20807 17.9798C8.14464 18.0148 8.07339 18.0331 8.00096 18.0331C7.92852 18.0331 7.85727 18.0148 7.79385 17.9798C6.6481 17.3486 1.14062 14.0348 1.14062 8.65601C1.14062 4.36804 3.71341 1.36646 8.00139 1.36646C12.2894 1.36646 14.8621 4.36804 14.8621 8.65601Z" stroke="white" stroke-width="1.4" stroke-linecap="round" stroke-linejoin="round"/>
<path id="Vector_2" d="M4.57031 8.22726C4.57031 9.13705 4.93173 10.0096 5.57505 10.6529C6.21837 11.2962 7.0909 11.6576 8.00069 11.6576C8.91049 11.6576 9.78302 11.2962 10.4263 10.6529C11.0697 10.0096 11.4311 9.13705 11.4311 8.22726C11.4311 7.31746 11.0697 6.44493 10.4263 5.80161C9.78302 5.15829 8.91049 4.79688 8.00069 4.79688C7.0909 4.79688 6.21837 5.15829 5.57505 5.80161C4.93173 6.44493 4.57031 7.31746 4.57031 8.22726V8.22726Z" stroke="white" stroke-width="1.4" stroke-linecap="round" stroke-linejoin="round"/>
</g>
</svg>
