<svg width="20" height="19" viewBox="0 0 20 19" fill="none" xmlns="http://www.w3.org/2000/svg">
<g id="Phone">
<path id="Vector" d="M12.249 17.3851L12.2581 17.3915C13.0451 17.8926 13.9796 18.1102 14.9071 18.0084C15.8345 17.9065 16.6995 17.4913 17.359 16.8313L17.932 16.2584C18.0589 16.1315 18.1596 15.9808 18.2284 15.815C18.2971 15.6492 18.3324 15.4714 18.3324 15.2919C18.3324 15.1124 18.2971 14.9347 18.2284 14.7688C18.1596 14.603 18.0589 14.4524 17.932 14.3255L15.5154 11.9107C15.3885 11.7838 15.2378 11.683 15.072 11.6143C14.9062 11.5456 14.7284 11.5102 14.5489 11.5102C14.3694 11.5102 14.1917 11.5456 14.0259 11.6143C13.86 11.683 13.7094 11.7838 13.5825 11.9107C13.3263 12.1669 12.9788 12.3108 12.6165 12.3108C12.2542 12.3108 11.9067 12.1669 11.6505 11.9107L7.78657 8.04586C7.53043 7.78963 7.38653 7.44217 7.38653 7.07987C7.38653 6.71757 7.53043 6.3701 7.78657 6.11388C7.91354 5.987 8.01426 5.83633 8.08298 5.67051C8.1517 5.50468 8.18707 5.32694 8.18707 5.14744C8.18707 4.96794 8.1517 4.79019 8.08298 4.62437C8.01426 4.45854 7.91354 4.30788 7.78657 4.18099L5.37092 1.76625C5.1147 1.51011 4.76723 1.36621 4.40493 1.36621C4.04263 1.36621 3.69516 1.51011 3.43894 1.76625L2.86509 2.33919C2.20524 2.99883 1.79018 3.86385 1.68849 4.79131C1.5868 5.71878 1.80457 6.65318 2.30581 7.44012L2.31127 7.44923C4.95846 11.3658 8.3319 14.7386 12.249 17.3851V17.3851Z" stroke="white" stroke-width="1.4" stroke-linecap="round" stroke-linejoin="round"/>
</g>
</svg>
