<svg width="19" height="15" viewBox="0 0 19 15" fill="none" xmlns="http://www.w3.org/2000/svg">
<g id="Social Media Icon Square/Twitter">
<path id="Twitter" d="M12.8708 0.0962593V0.0930176H13.7148L14.0232 0.15461C14.2288 0.194596 14.4154 0.246997 14.5832 0.311831C14.7509 0.376665 14.9132 0.452309 15.0701 0.538749C15.227 0.625188 15.3693 0.713265 15.497 0.802946C15.6236 0.891557 15.7372 0.985566 15.8378 1.08497C15.9373 1.18546 16.0926 1.2114 16.3036 1.16277C16.5146 1.11415 16.7419 1.04661 16.9853 0.960167C17.2288 0.873728 17.4695 0.776478 17.7076 0.668416C17.9456 0.560355 18.0907 0.491744 18.1426 0.462569C18.1934 0.432324 18.2205 0.416116 18.2237 0.413944L18.227 0.409082L18.2432 0.400977L18.2594 0.392873L18.2757 0.384769L18.2919 0.376665L18.2951 0.371802L18.3 0.368561L18.3049 0.365319L18.3081 0.360456L18.3244 0.355594L18.3406 0.352352L18.3374 0.376665L18.3325 0.400977L18.3244 0.42529L18.3162 0.449603L18.3081 0.465811L18.3 0.482019L18.2919 0.506332C18.2865 0.52254 18.2811 0.544146 18.2757 0.571166C18.2703 0.598185 18.2189 0.70623 18.1215 0.895334C18.0241 1.08444 17.9024 1.27623 17.7563 1.47073C17.6102 1.66523 17.4793 1.81218 17.3635 1.9116C17.2467 2.01209 17.1693 2.08232 17.1314 2.12231C17.0935 2.16337 17.0475 2.20118 16.9934 2.23577L16.9123 2.28926L16.896 2.29736L16.8798 2.30547L16.8766 2.31033L16.8717 2.31357L16.8668 2.31681L16.8636 2.32167L16.8474 2.32978L16.8311 2.33788L16.8279 2.34274L16.823 2.34599L16.8181 2.34923L16.8149 2.35409L16.8117 2.35895L16.8068 2.36219L16.8019 2.36544L16.7987 2.3703H16.8798L17.3343 2.27305C17.6373 2.20821 17.9267 2.12988 18.2026 2.03803L18.6409 1.89215L18.6896 1.87594L18.7139 1.86784L18.7301 1.85973L18.7464 1.85163L18.7626 1.84353L18.7788 1.83542L18.8113 1.83056L18.8438 1.82732V1.85973L18.8356 1.86298L18.8275 1.86784L18.8243 1.8727L18.8194 1.87594L18.8145 1.87918L18.8113 1.88405L18.8081 1.88891L18.8032 1.89215L18.7983 1.89539L18.7951 1.90026L18.7918 1.90512L18.7869 1.90836L18.7788 1.92457L18.7707 1.94078L18.7658 1.94402C18.7637 1.94726 18.695 2.0391 18.5597 2.21956C18.4245 2.40109 18.3514 2.49293 18.3406 2.4951C18.3298 2.49835 18.3146 2.51455 18.2951 2.54373C18.2768 2.57397 18.1621 2.69447 17.9511 2.90518C17.7401 3.11589 17.5334 3.30335 17.3311 3.46761C17.1276 3.63293 17.0248 3.83607 17.0227 4.07704C17.0194 4.31693 17.007 4.58816 16.9853 4.89071C16.9637 5.19327 16.9231 5.52013 16.8636 5.87132C16.8041 6.2225 16.7121 6.61961 16.5877 7.06263C16.4632 7.50566 16.3117 7.93789 16.1332 8.35931C15.9547 8.78072 15.768 9.15892 15.5732 9.49389C15.3785 9.82887 15.1999 10.1125 15.0376 10.3448C14.8753 10.5772 14.7103 10.796 14.5426 11.0013C14.3749 11.2066 14.1628 11.4378 13.9063 11.695C13.6488 11.9511 13.5082 12.0916 13.4843 12.1164C13.4595 12.1402 13.3534 12.2288 13.1662 12.3822C12.9801 12.5367 12.7799 12.6913 12.5657 12.8458C12.3525 12.9992 12.1566 13.1273 11.9781 13.2299C11.7996 13.3326 11.5842 13.4498 11.3321 13.5817C11.0811 13.7146 10.8095 13.8377 10.5173 13.9512C10.2252 14.0647 9.91679 14.17 9.59217 14.2673C9.26756 14.3645 8.95376 14.4402 8.65078 14.4942C8.34782 14.5482 8.00426 14.5941 7.62012 14.632L7.04393 14.6887V14.6968H5.98893V14.6887L5.85096 14.6806C5.759 14.6752 5.68325 14.6698 5.62373 14.6644C5.56423 14.659 5.33969 14.6293 4.95015 14.5752C4.56061 14.5212 4.25494 14.4672 4.03311 14.4131C3.8113 14.3591 3.48126 14.2565 3.04303 14.1052C2.6048 13.9539 2.22986 13.801 1.91823 13.6465C1.60769 13.493 1.41292 13.3958 1.33392 13.3547C1.25601 13.3148 1.16837 13.2651 1.07098 13.2056L0.924904 13.1165L0.921674 13.1116L0.916789 13.1084L0.91192 13.1051L0.908673 13.1003L0.892443 13.0922L0.876212 13.0841L0.872982 13.0792L0.868096 13.076L0.863227 13.0727L0.859981 13.0678L0.856751 13.063L0.851865 13.0597H0.84375V13.0273L0.859981 13.0306L0.876212 13.0354L0.94925 13.0435C0.997943 13.0489 1.1305 13.057 1.34691 13.0678C1.56333 13.0787 1.79325 13.0787 2.03672 13.0678C2.28018 13.057 2.52906 13.0327 2.78334 12.9949C3.03762 12.9571 3.33789 12.8923 3.68415 12.8004C4.03042 12.7086 4.34854 12.5994 4.63854 12.473C4.92744 12.3455 5.13302 12.2504 5.25531 12.1877C5.37649 12.1261 5.56152 12.0116 5.81039 11.8441L6.1837 11.5929L6.18694 11.588L6.19181 11.5848L6.1967 11.5815L6.19993 11.5767L6.20317 11.5718L6.20804 11.5686L6.21293 11.5653L6.21616 11.5605L6.23239 11.5556L6.24862 11.5524L6.25187 11.5362L6.25673 11.5199L6.26162 11.5167L6.26485 11.5118L6.135 11.5037C6.04844 11.4983 5.96458 11.4929 5.88343 11.4875C5.80227 11.4821 5.67514 11.4578 5.502 11.4146C5.32888 11.3714 5.14223 11.3065 4.94204 11.2201C4.74186 11.1337 4.54709 11.031 4.35773 10.9121C4.16838 10.7933 4.03149 10.6944 3.94709 10.6155C3.86377 10.5377 3.75556 10.4275 3.62247 10.2849C3.49046 10.1412 3.37576 9.99365 3.27838 9.84237C3.18099 9.6911 3.08794 9.51657 2.99922 9.31884L2.86449 9.02385L2.85637 8.99954L2.84826 8.97523L2.84339 8.95902L2.84014 8.94281L2.86449 8.94605L2.88884 8.95091L3.06737 8.97523C3.18641 8.99143 3.37307 8.99683 3.62734 8.99143C3.88163 8.98604 4.05746 8.97523 4.15484 8.95902C4.25223 8.94281 4.31174 8.932 4.33338 8.9266L4.36584 8.9185L4.40642 8.91039L4.447 8.90229L4.45024 8.89743L4.45511 8.89418L4.46 8.89094L4.46323 8.88608L4.43077 8.87797L4.3983 8.86987L4.36584 8.86177L4.33338 8.85366L4.30092 8.84556C4.27928 8.84016 4.24142 8.82935 4.1873 8.81314C4.13321 8.79693 3.98713 8.7375 3.74907 8.63485C3.51103 8.5322 3.32166 8.43224 3.18099 8.33499C3.03997 8.23746 2.90551 8.1308 2.77847 8.01569C2.65187 7.89899 2.51283 7.74878 2.36133 7.56509C2.20985 7.3814 2.0746 7.16799 1.95556 6.92486C1.83654 6.68174 1.74727 6.44942 1.68775 6.2279C1.62847 6.00768 1.58936 5.78254 1.57091 5.55525L1.54168 5.21487L1.55791 5.21812L1.57414 5.22298L1.59037 5.23108L1.6066 5.23919L1.62283 5.24729L1.63906 5.2554L1.89064 5.36885C2.05837 5.4445 2.26666 5.50933 2.51553 5.56336C2.76441 5.61738 2.91318 5.6471 2.96187 5.6525L3.03491 5.66061H3.18099L3.17776 5.65574L3.17288 5.6525L3.16801 5.64926L3.16476 5.6444L3.16153 5.63953L3.15664 5.63629L3.15178 5.63305L3.14853 5.62819L3.1323 5.62008L3.11607 5.61198L3.11284 5.60712L3.10795 5.60388L3.10308 5.60063L3.09984 5.59577L3.08361 5.58767L3.06737 5.57956L3.06414 5.5747C3.0609 5.57253 3.01436 5.53796 2.92454 5.47097C2.83581 5.40289 2.74276 5.31483 2.64537 5.20677C2.54799 5.09871 2.4506 4.98525 2.35322 4.86639C2.25565 4.74727 2.16876 4.61981 2.09352 4.4855C2.01779 4.35043 1.93771 4.17861 1.85331 3.97007C1.77 3.7626 1.70669 3.55351 1.66341 3.3428C1.62014 3.13209 1.59579 2.92409 1.59037 2.71878C1.58496 2.51347 1.59037 2.33788 1.6066 2.19201C1.62283 2.04613 1.65529 1.88134 1.70398 1.69765C1.75268 1.51396 1.82302 1.31946 1.91499 1.11415L2.05295 0.806188L2.06106 0.781875L2.06918 0.757562L2.07406 0.754321L2.07729 0.749458L2.08054 0.744596L2.08541 0.741354L2.09029 0.744596L2.09352 0.749458L2.09677 0.754321L2.10164 0.757562L2.10653 0.760804L2.10976 0.765667L2.113 0.770529L2.11787 0.773771L2.12599 0.789979L2.1341 0.806188L2.13899 0.809429L2.14222 0.814292L2.36133 1.05742C2.50741 1.2195 2.68055 1.4005 2.88072 1.6004C3.08091 1.8003 3.19182 1.90403 3.21345 1.9116C3.2351 1.92024 3.26214 1.94509 3.29461 1.98616C3.32707 2.02615 3.43528 2.12178 3.61922 2.27305C3.80318 2.42432 4.04394 2.59992 4.3415 2.79982C4.63907 2.99972 4.96909 3.19693 5.33158 3.39143C5.69408 3.58593 6.08362 3.76152 6.5002 3.9182C6.91679 4.07489 7.20895 4.17754 7.37666 4.22616C7.54439 4.27479 7.83113 4.33691 8.2369 4.41256C8.64267 4.4882 8.94836 4.53683 9.15394 4.55843C9.35954 4.58004 9.50021 4.59247 9.57594 4.59571L9.68956 4.59896L9.68633 4.57464L9.68144 4.55033L9.64898 4.34772C9.62734 4.21266 9.61652 4.02356 9.61652 3.78043C9.61652 3.5373 9.63546 3.31309 9.67333 3.10778C9.71121 2.90247 9.76802 2.69447 9.84375 2.48376C9.9195 2.27305 9.99363 2.10393 10.0661 1.97643C10.1397 1.85001 10.236 1.70575 10.355 1.54367C10.4741 1.38159 10.6283 1.2141 10.8176 1.04121C11.007 0.868314 11.2234 0.714334 11.4668 0.57927C11.7103 0.444205 11.9348 0.341541 12.1404 0.27131C12.346 0.201079 12.5191 0.155144 12.6598 0.133539C12.8005 0.111933 12.8708 0.0995009 12.8708 0.0962593Z" fill="#51FFA3"/>
</g>
</svg>
