<svg width="21" height="15" viewBox="0 0 21 15" fill="none" xmlns="http://www.w3.org/2000/svg">
<g id="Social Media Icon Square/YouTube">
<g id="Group 73">
<path id="YouTube" d="M11.2918 14.3747L7.22959 14.2988C5.91434 14.2723 4.59582 14.3251 3.30636 14.051C1.3448 13.6415 1.20583 11.6336 1.06042 9.94939C0.860059 7.58155 0.937625 5.17074 1.31573 2.82266C1.52919 1.50514 2.36922 0.718973 3.6683 0.633423C8.05365 0.322948 12.4682 0.359743 16.8438 0.50459C17.3059 0.517869 17.7712 0.590445 18.2269 0.673056C20.4762 1.07597 20.5311 3.35137 20.6769 5.26683C20.8223 7.20205 20.7609 9.14721 20.4829 11.0693C20.26 12.6607 19.8334 13.9952 18.033 14.124C15.7772 14.2925 13.5732 14.4281 11.3111 14.3849C11.3112 14.3747 11.2982 14.3747 11.2918 14.3747ZM8.9036 10.3457C10.6035 9.34831 12.271 8.36752 13.9612 7.3768C12.2581 6.37939 10.5938 5.3986 8.9036 4.40788V10.3457Z" fill="#51FFA3"/>
</g>
</g>
</svg>
